<svg xmlns="http://www.w3.org/2000/svg" viewBox="0 0 1280 910" role="img" aria-labelledby="title desc">
  <title id="title">Mapa přístupu k zadnímu vchodu</title>
  <desc id="desc">Orientační mapa ukazuje hlavní vchod, zadní vchod a doporučenou trasu kolem kurtů.</desc>
  <defs>
    <linearGradient id="grass" x1="0" y1="0" x2="1" y2="1">
      <stop offset="0" stop-color="#9aa86f"/>
      <stop offset="0.45" stop-color="#677a4f"/>
      <stop offset="1" stop-color="#b39062"/>
    </linearGradient>
    <filter id="softShadow" x="-20%" y="-20%" width="140%" height="140%">
      <feDropShadow dx="0" dy="6" stdDeviation="8" flood-color="#1f2937" flood-opacity="0.32"/>
    </filter>
  </defs>
  <rect width="1280" height="910" fill="url(#grass)"/>
  <path d="M0 0h1280v910H0z" fill="#000" opacity="0.08"/>
  <path d="M0 690c220-80 430-70 640-12 210 58 430 35 640-42v274H0z" fill="#d8793d" opacity="0.68"/>
  <rect x="50" y="0" width="92" height="910" fill="#bf4b3f" opacity="0.78"/>
  <g opacity="0.45" stroke="#f2c8bc" stroke-width="3">
    <path d="M72 0v910M104 0v910M136 0v910"/>
    <path d="M50 100h92M50 210h92M50 320h92M50 430h92M50 540h92M50 650h92M50 760h92"/>
  </g>
  <rect x="390" y="135" width="350" height="480" rx="18" fill="#4f5c4f" opacity="0.63"/>
  <g fill="#c2b09a" opacity="0.88">
    <rect x="455" y="215" width="250" height="85" rx="6"/>
    <rect x="530" y="392" width="90" height="80" rx="6"/>
    <rect x="628" y="330" width="96" height="86" rx="6"/>
    <rect x="598" y="520" width="194" height="44" rx="6"/>
  </g>
  <rect x="518" y="620" width="338" height="106" rx="4" fill="#c6d6d8" opacity="0.92"/>
  <path d="M790 78l244 458" fill="none" stroke="#fff200" stroke-width="7" stroke-linecap="round" stroke-linejoin="round" filter="url(#softShadow)"/>
  <path d="M508 672L790 78" fill="none" stroke="#fff200" stroke-width="7" stroke-linecap="round" stroke-linejoin="round" filter="url(#softShadow)"/>
  <rect x="480" y="655" width="62" height="38" fill="none" stroke="#fff200" stroke-width="6"/>
  <rect x="1003" y="527" width="68" height="66" fill="none" stroke="#fff200" stroke-width="6"/>
  <g font-family="Arial, Helvetica, sans-serif" font-size="32" font-weight="700" fill="#fff200" stroke="#394150" stroke-width="2" paint-order="stroke">
    <text x="365" y="728">Hlavní vchod</text>
    <text x="984" y="626">Zadní vchod</text>
  </g>
  <rect x="36" y="34" width="1208" height="842" rx="28" fill="none" stroke="#ffffff" stroke-opacity="0.18" stroke-width="2"/>
</svg>
